# xmcd
#
# Track frame offsets:
#       150
#       13020
#       30081
#       48153
#       53140
#       64888
#       81024
#       106463
#       133967
#       139604
#       158887
#       181830
#       203650
#       221610
#       245362
#       265270
#       287909
#
# Disc length: 4119 seconds
#
# Revision: 13
# Processed by: cddbd v1.5.2PL0 Copyright (c) Steve Scherf et al.
# Submitted via: WaveLab 4.01
#
DISCID=ed101511
DTITLE=Blackmores Night - 
DYEAR=1900
DGENRE=
TTITLE0=Titel 01
TTITLE1=Titel 02
TTITLE2=Titel 03
TTITLE3=Titel 04
TTITLE4=Titel 05
TTITLE5=Titel 06
TTITLE6=Titel 07
TTITLE7=Titel 08
TTITLE8=Titel 09
TTITLE9=Titel 10
TTITLE10=Titel 11
TTITLE11=Titel 12
TTITLE12=Titel 13
TTITLE13=Titel 14
TTITLE14=Titel 15
TTITLE15=Titel 16
TTITLE16=Titel 17
EXTD=
EXTT0=
EXTT1=
EXTT2=
EXTT3=
EXTT4=
EXTT5=
EXTT6=
EXTT7=
EXTT8=
EXTT9=
EXTT10=
EXTT11=
EXTT12=
EXTT13=
EXTT14=
EXTT15=
EXTT16=
PLAYORDER=
